<svg width="1200" height="1600" viewBox="0 0 1200 1600" fill="none" xmlns="http://www.w3.org/2000/svg">
  <rect width="1200" height="1600" fill="#0a0a0b"/>
  <g stroke="#efefe9" stroke-width="1.5">
    <line x1="220" y1="260" x2="520" y2="180"/>
    <line x1="520" y1="180" x2="780" y2="420"/>
    <line x1="780" y1="420" x2="620" y2="760"/>
    <line x1="620" y1="760" x2="340" y2="900"/>
    <line x1="340" y1="900" x2="220" y2="260"/>
    <line x1="520" y1="180" x2="900" y2="120"/>
    <line x1="780" y1="420" x2="1000" y2="300"/>
    <line x1="620" y1="760" x2="960" y2="900"/>
    <line x1="340" y1="900" x2="200" y2="1100"/>
  </g>
  <g fill="#d9ff3f">
    <circle cx="220" cy="260" r="9"/>
    <circle cx="520" cy="180" r="9"/>
    <circle cx="900" cy="120" r="9"/>
  </g>
  <g fill="#efefe9">
    <circle cx="780" cy="420" r="7"/>
    <circle cx="1000" cy="300" r="7"/>
    <circle cx="620" cy="760" r="7"/>
    <circle cx="340" cy="900" r="7"/>
    <circle cx="200" cy="1100" r="7"/>
    <circle cx="960" cy="900" r="7"/>
  </g>
  <circle cx="520" cy="180" r="160" fill="none" stroke="#2a2a2c" stroke-width="1.5"/>
  <text x="80" y="1540" font-family="monospace" font-size="20" fill="#9c9c95">NORTHSTAR — DESIGN SYSTEM / 04</text>
</svg>